<?xml version="1.0" encoding="utf-8"?>
<!-- Generator: Adobe Illustrator 23.0.0, SVG Export Plug-In . SVG Version: 6.00 Build 0)  -->
<svg version="1.1" id="Layer_1" xmlns="http://www.w3.org/2000/svg" xmlns:xlink="http://www.w3.org/1999/xlink" x="0px" y="0px"
	 viewBox="0 0 512 512" style="enable-background:new 0 0 512 512;" xml:space="preserve">
<style type="text/css">
	.st0{fill:#DDAB9F;}
	.st1{fill:#EAC6BB;}
	.st2{fill:#B80F12;}
	.st3{fill:#E6E9ED;}
	.st4{fill:#434A54;}
</style>
<g>
	<path class="st0" d="M415.6,271c-3.5-4.4-8.8-4.4-11-4.4c-8.7,0-27.8,3.2-45.8,9c-25.2,8.1-42.2,19-50.5,32.4
		c-7.4,11.9-7.8,25.3-1.2,39c4.6,9.5,12.6,14.7,22.4,14.7l0,0c14.3,0,31.9-11.3,53.9-34.5c15.3-16.2,29.5-35.2,33.1-42.9
		C419.5,278,417.7,273.6,415.6,271z"/>
	<path class="st0" d="M72,275.6c-18.1-5.8-37.1-9-45.9-9c-2.2,0-7.5,0-11,4.4c-2.1,2.5-3.9,6.9-0.8,13.3
		c3.7,7.7,17.9,26.7,33.1,42.9c21.9,23.2,39.6,34.5,53.9,34.5c9.8,0,17.7-5.2,22.4-14.7c6.6-13.6,6.2-27.1-1.2-39
		C114.2,294.6,97.2,283.7,72,275.6z"/>
</g>
<path class="st1" d="M354,322.6C354,427.2,264.3,512,215.4,512c-48.9,0-138.7-84.8-138.7-189.4c0-104.6,62.1-189.4,138.7-189.4
	C292,133.1,354,217.9,354,322.6z"/>
<path class="st2" d="M477.9,123.4c-23.5-41.7-52.3-73.5-85.7-94.5C361.8,9.7,328.5,0,293.2,0c-31.6,0-64.1,8.1-94,23.5
	c-28.7,14.8-54.5,35.9-74.6,61.1c-18,22.6-30.7,47.3-37.8,73.4c-7.6,28-8.3,56-2,83.3l1.9,8.3h252.9l-0.7-11.3
	c-2.8-43.5,13.9-71.2,28.5-86.6c13.3-14.2,36-28.6,56.5-28.6c5.9,0,10.6,1.4,12.6,3.8c1.3,1.5,1.6,4,1,7.3c-0.6,3.2,0.3,6.4,2.3,8.9
	c2.1,2.5,5.2,3.9,8.6,3.9c0,0,0,0,0,0c1.8,0,5.3,0,24.6-8.6l10.7-4.8L477.9,123.4z"/>
<path class="st3" d="M499.3,127c0,23.2-18.8,42-42,42s-42-18.8-42-42s18.8-42,42-42S499.3,103.8,499.3,127z"/>
<g>
	<path class="st4" d="M172.7,341.3c-5.9,0-10.7,4.8-10.7,10.7s4.8,10.7,10.7,10.7s10.7-4.8,10.7-10.7S178.6,341.3,172.7,341.3z"/>
	<path class="st4" d="M258,341.3c-5.9,0-10.7,4.8-10.7,10.7s4.8,10.7,10.7,10.7c5.9,0,10.7-4.8,10.7-10.7S263.9,341.3,258,341.3z"/>
	<path class="st4" d="M194,437.3c4.4,0,8.1-2.6,9.8-6.4c0.3-0.5,2.2-3.5,8.7-4.3h6.1c6.2,0.7,8,3.5,8.3,4.1c1.6,3.9,5.4,6.6,9.9,6.6
		c5.9,0,10.7-4.8,10.7-10.7c0-1.3-0.2-2.5-0.6-3.6h0c-2.4-6.6-11.6-17.9-31.2-17.9c-19.1,0-28.5,10.7-31.3,17.3
		c0,0.1-0.1,0.1-0.1,0.2c0,0.1-0.1,0.1-0.1,0.2h0c-0.5,1.2-0.7,2.5-0.7,3.8C183.4,432.5,188.1,437.3,194,437.3z M203.9,430.8
		c0-0.1,0.1-0.2,0.1-0.3l0,0C204,430.5,204,430.6,203.9,430.8z M226.7,430.3L226.7,430.3c0.1,0.1,0.1,0.3,0.2,0.4
		C226.8,430.6,226.7,430.5,226.7,430.3z"/>
</g>
<path class="st3" d="M364.7,277.3c0,11.8-9.6,21.3-21.3,21.3h-256c-11.8,0-21.3-9.5-21.3-21.3V256c0-11.8,9.5-21.3,21.3-21.3h256
	c11.8,0,21.3,9.6,21.3,21.3V277.3z"/>
</svg>
