<?xml version="1.0" encoding="iso-8859-1"?>
<!-- Generator: Adobe Illustrator 19.0.0, SVG Export Plug-In . SVG Version: 6.00 Build 0)  -->
<svg version="1.1" id="Layer_1" xmlns="http://www.w3.org/2000/svg" xmlns:xlink="http://www.w3.org/1999/xlink" x="0px" y="0px"
	 viewBox="0 0 503.467 503.467" style="enable-background:new 0 0 503.467 503.467;" xml:space="preserve">
<g transform="translate(1 13)">
	<path style="fill:#ECF4F7;" d="M84.333,93.667h-64c-9.387,0-17.067,7.68-17.067,17.067v102.4c0,9.387,7.68,17.067,17.067,17.067
		H37.4h170.667V93.667H203.8H84.333L84.333,93.667z M208.067,230.2v256H71.533c-18.773,0-34.133-15.36-34.133-34.133V230.2H208.067z
		 M301.933,93.667h51.2h128c9.387,0,17.067,7.68,17.067,17.067v102.4c0,9.387-7.68,17.067-17.067,17.067h-17.067H293.4V93.667
		H301.933z M464.067,230.2v221.867c0,18.773-15.36,34.133-34.133,34.133H293.4v-256H464.067z"/>
	<polygon style="fill:#FF7474;" points="208.067,486.2 293.4,486.2 293.4,93.667 208.067,93.667 	"/>
</g>
<path style="fill:#51565F;" d="M430.933,503.467h-358.4c-21.333,0-38.4-17.067-38.4-38.4V277.333c0-2.56,1.707-4.267,4.267-4.267
	s4.267,1.707,4.267,4.267v187.733c0,16.213,13.653,29.867,29.867,29.867H204.8v-217.6c0-2.56,1.707-4.267,4.267-4.267
	s4.267,1.707,4.267,4.267v217.6h76.8v-217.6c0-2.56,1.707-4.267,4.267-4.267s4.267,1.707,4.267,4.267v217.6h132.267
	c16.213,0,29.867-13.653,29.867-29.867V277.333c0-2.56,1.707-4.267,4.267-4.267s4.267,1.707,4.267,4.267v187.733
	C469.333,486.4,452.267,503.467,430.933,503.467z M371.2,469.333L371.2,469.333h-25.6c-2.56,0-4.267-1.707-4.267-4.267
	c0-2.56,1.707-4.267,4.267-4.267h17.92l-9.387-15.36c0-0.853-0.853-1.707-0.853-2.56c0-1.707,0.853-2.56,2.56-3.413
	s4.267-0.853,5.973,1.707l9.387,15.36l9.387-15.36c0.853-1.707,3.413-2.56,5.973-1.707c1.707,0.853,2.56,2.56,2.56,3.413
	c0,0.853,0,1.707-0.853,2.56l-9.387,15.36h17.92c2.56,0,4.267,1.707,4.267,4.267c0,2.56-1.707,4.267-4.267,4.267H371.2
	L371.2,469.333L371.2,469.333L371.2,469.333z M157.867,452.267c-2.56,0-4.267-1.707-4.267-4.267v-17.92l-15.36,9.387
	c-1.707,0.853-4.267,0.853-5.973-1.707c0-0.853-0.853-1.707-0.853-2.56c0-1.707,0.853-2.56,2.56-3.413l15.36-9.387l-15.36-9.387
	c-1.707-0.853-2.56-2.56-2.56-3.413c0-0.853,0-1.707,0.853-2.56c0.853-1.707,3.413-2.56,5.973-1.707l15.36,9.387V396.8
	c0-2.56,1.707-4.267,4.267-4.267c2.56,0,4.267,1.707,4.267,4.267v17.92l16.213-9.387c1.707-0.853,4.267-0.853,5.973,1.707
	c0,0.853,0.853,1.707,0.853,2.56c0,1.707-0.853,2.56-2.56,3.413l-15.36,9.387l15.36,9.387c1.707,0.853,2.56,2.56,2.56,3.413
	c0,0.853,0,1.707-0.853,2.56c-0.853,1.707-3.413,2.56-5.973,1.707l-15.36-9.387V448C162.133,450.56,160.427,452.267,157.867,452.267
	z M396.8,384c-2.56,0-4.267-1.707-4.267-4.267v-17.92l-15.36,9.387c-1.707,0.853-4.267,0.853-5.973-1.707
	c0-0.853-0.853-1.707-0.853-2.56c0-1.707,0.853-2.56,2.56-3.413l15.36-9.387l-15.36-9.387c-1.707-0.853-2.56-2.56-2.56-3.413
	c0-0.853,0-1.707,0.853-2.56c0.853-1.707,3.413-2.56,5.973-1.707l15.36,9.387v-17.92c0-2.56,1.707-4.267,4.267-4.267
	s4.267,1.707,4.267,4.267v17.92l15.36-9.387c1.707-0.853,4.267-0.853,5.973,1.707c0,0.853,0.853,1.707,0.853,2.56
	c0,1.707-0.853,2.56-2.56,3.413l-15.36,9.387l15.36,9.387c1.707,0.853,2.56,2.56,2.56,3.413s0,1.707-0.853,2.56
	c-0.853,1.707-3.413,2.56-5.973,1.707l-15.36-9.387v17.92C401.067,382.293,399.36,384,396.8,384z M72.533,366.933
	c-2.56,0-4.267-1.707-4.267-4.267v-25.6l0,0l0,0l0,0v-25.6c0-2.56,1.707-4.267,4.267-4.267c2.56,0,4.267,1.707,4.267,4.267v17.92
	L93.013,320c1.707-0.853,4.267-0.853,5.973,1.707c0,0.853,0.853,1.707,0.853,1.707c0,1.707-0.853,2.56-2.56,3.413l-15.36,9.387
	l15.36,9.387c1.707,0.853,2.56,2.56,2.56,3.413c0,0.853,0,1.707-0.853,2.56c-0.853,1.707-3.413,2.56-5.973,1.707l-15.36-9.387v17.92
	C76.8,365.227,75.093,366.933,72.533,366.933z M482.133,247.467h-460.8C9.387,247.467,0,238.08,0,226.133v-102.4
	C0,111.787,9.387,102.4,21.333,102.4h98.133c-15.36-10.24-25.6-27.307-25.6-46.933c0-2.56,1.707-4.267,4.267-4.267
	s4.267,1.707,4.267,4.267c0,25.6,21.333,46.933,46.933,46.933h21.333c-15.36-10.24-25.6-27.307-25.6-46.933
	C145.067,24.747,169.813,0,200.533,0c23.04,0,42.667,14.507,51.2,34.133C260.267,14.507,279.893,0,302.933,0
	c30.72,0,55.467,24.747,55.467,55.467c0,19.627-10.24,36.693-25.6,46.933h21.333c25.6,0,46.933-21.333,46.933-46.933
	c0-2.56,1.707-4.267,4.267-4.267s4.267,1.707,4.267,4.267c0,19.627-10.24,36.693-25.6,46.933h98.133
	c11.947,0,21.333,9.387,21.333,21.333v102.4C503.467,238.08,494.08,247.467,482.133,247.467z M298.667,238.933h183.467
	c6.827,0,12.8-5.973,12.8-12.8v-102.4c0-6.827-5.973-12.8-12.8-12.8h-460.8c-6.827,0-12.8,5.973-12.8,12.8v102.4
	c0,6.827,5.973,12.8,12.8,12.8H204.8V140.8c0-2.56,1.707-4.267,4.267-4.267s4.267,1.707,4.267,4.267v98.133h76.8V140.8
	c0-2.56,1.707-4.267,4.267-4.267s4.267,1.707,4.267,4.267V238.933z M302.933,102.4c25.6,0,46.933-21.333,46.933-46.933
	S328.533,8.533,302.933,8.533S256,29.867,256,55.467S277.333,102.4,302.933,102.4z M230.4,102.4h43.52
	c-9.387-5.973-17.067-15.36-21.333-25.6C247.467,87.04,239.787,96.427,230.4,102.4z M200.533,102.4
	c25.6,0,46.933-21.333,46.933-46.933S226.133,8.533,200.533,8.533S153.6,29.867,153.6,55.467S174.933,102.4,200.533,102.4z
	 M388.267,213.333L388.267,213.333h-25.6c-2.56,0-4.267-1.707-4.267-4.267c0-2.56,1.707-4.267,4.267-4.267h17.92l-9.387-16.213
	c0-0.853-0.853-1.707-0.853-2.56c0-1.707,0.853-2.56,2.56-3.413c1.707-0.853,4.267-0.853,5.973,1.707l9.387,16.213l9.387-15.36
	c0.853-1.707,3.413-2.56,5.973-1.707c1.707,0.853,2.56,2.56,2.56,3.413s0,1.707-0.853,2.56l-9.387,15.36h17.92
	c2.56,0,4.267,1.707,4.267,4.267c0,2.56-1.707,4.267-4.267,4.267H388.267L388.267,213.333z M72.533,196.267
	c-2.56,0-4.267-1.707-4.267-4.267v-17.92l-15.36,9.387c-1.707,0.853-4.267,0.853-5.973-1.707c0-0.853-0.853-1.707-0.853-2.56
	c0-1.707,0.853-2.56,2.56-3.413L64,166.4l-15.36-9.387c-1.707-0.853-2.56-2.56-2.56-3.413c0-0.853,0-1.707,0.853-2.56
	c0.853-1.707,3.413-2.56,5.973-1.707l15.36,9.387V140.8c0-2.56,1.707-4.267,4.267-4.267c2.56,0,4.267,1.707,4.267,4.267v17.92
	l16.213-9.387c1.707-0.853,4.267-0.853,5.973,1.707c0,0.853,0.853,1.707,0.853,2.56c0,1.707-0.853,2.56-2.56,3.413L81.92,166.4
	l15.36,9.387c1.707,0.853,2.56,2.56,2.56,3.413c0,0.853,0,1.707-0.853,2.56c-0.853,1.707-3.413,2.56-5.973,1.707l-15.36-9.387V192
	C76.8,194.56,75.093,196.267,72.533,196.267z"/>
<g>
</g>
<g>
</g>
<g>
</g>
<g>
</g>
<g>
</g>
<g>
</g>
<g>
</g>
<g>
</g>
<g>
</g>
<g>
</g>
<g>
</g>
<g>
</g>
<g>
</g>
<g>
</g>
<g>
</g>
</svg>
