<?xml version="1.0" encoding="iso-8859-1"?>
<!-- Generator: Adobe Illustrator 19.0.0, SVG Export Plug-In . SVG Version: 6.00 Build 0)  -->
<svg version="1.1" id="Layer_1" xmlns="http://www.w3.org/2000/svg" xmlns:xlink="http://www.w3.org/1999/xlink" x="0px" y="0px"
	 viewBox="0 0 512.003 512.003" style="enable-background:new 0 0 512.003 512.003;" xml:space="preserve">
<path style="fill:#FFB7B2;" d="M192.002,384.002c-35.294,0-64-28.706-64-64s28.706-64,64-64s64,28.706,64,64
	S227.295,384.002,192.002,384.002z"/>
<path style="fill:#BF655F;" d="M256.002,499.202c-35.294,0-64-28.706-64-64s28.706-64,64-64s64,28.706,64,64
	S291.296,499.202,256.002,499.202z"/>
<path style="fill:#A0BF7C;" d="M238.38,276.738c-4.591-4.932-9.19-8.721-14.046-11.605l-12.937-7.663l10.743-12.877l0.521-0.358
	c19.021-19.994,18.671-59.563-0.742-79.727l6.502-22.511c11.29-1.562,21.376-6.494,29.15-14.268
	c12.706-12.706,17.647-30.874,13.235-48.597l18.167-14.532c7.194,3.618,15.249,5.521,23.296,5.521
	c13.551,0,26.266-5.257,35.806-14.797c8.218-8.218,13.21-18.944,14.438-31.019l23.62-5.436c2.313,3.729,4.659,6.767,7.194,9.301
	c9.677,9.668,22.537,14.993,36.207,14.993s26.53-5.325,36.198-14.993l18.099,18.099c-19.959,19.968-19.959,52.446,0,72.405
	c2.534,2.534,5.572,4.89,9.318,7.211l-5.461,23.612c-12.066,1.229-22.784,6.221-31.01,14.43
	c-15.514,15.522-19.251,39.279-9.276,59.11l-14.524,18.167c-4.156-1.033-8.431-1.562-12.706-1.562
	c-13.611,0-26.359,5.257-35.9,14.788c-3.004,3.012-5.623,6.46-7.799,10.266l-7.134,12.51l-11.58-8.55
	c-11.221-8.277-24.277-12.655-37.76-12.655c-8.755,0-17.792,2.167-26.846,6.426l-15.334-19.456
	c-7.313,9.173-13.611,19.098-18.313,30.08l-7.74,18.048L238.38,276.738z"/>
<path style="fill:#FF877F;" d="M320.002,384.002c-35.294,0-64-28.706-64-64s28.706-64,64-64s64,28.706,64,64
	S355.296,384.002,320.002,384.002z"/>
<path style="fill:#788F5D;" d="M135.229,264.799c-2.475-4.429-4.855-7.723-7.501-10.368c-9.54-9.532-22.289-14.788-35.9-14.788
	c-4.275,0-8.55,0.529-12.706,1.562l-14.524-18.167c9.975-19.831,6.238-43.58-9.276-59.11c-8.226-8.218-18.944-13.21-31.01-14.43
	l-5.461-23.612c3.738-2.313,6.784-4.676,9.318-7.211c19.959-19.968,19.959-52.446,0-72.405L46.269,28.17
	c9.668,9.668,22.528,14.993,36.198,14.993s26.53-5.325,36.207-14.993c2.534-2.534,4.881-5.572,7.194-9.301l23.62,5.436
	c1.237,12.075,6.221,22.801,14.438,31.019c9.54,9.54,22.255,14.797,35.806,14.797c8.047,0,16.111-1.911,23.296-5.521l18.167,14.532
	c-3.328,13.346-0.717,27.921,7.168,39.996l8.166,12.51l-13.611,6.161c-4.599,2.074-9.617,3.533-14.515,4.207
	c-4.838,0.674-8.815,3.977-10.377,8.61c-1.562,4.642-0.375,9.668,3.072,13.116l0.998,0.964
	c19.541,20.139,19.447,60.646-0.171,80.265c-0.734,0.742-1.604,1.451-2.534,2.099l-13.338,11.981l-1.468-3.806l-17.434,1.331
	c-12.126,0.922-23.586,5.163-33.126,12.271l-11.699,8.713L135.229,264.799z"/>
<path style="fill:#573A32;" d="M12.102,115.005c-9.31,5.777-13.909,16.836-11.443,27.511s11.452,18.603,22.349,19.712
	c6.349,0.649,15.531,3.038,23.253,10.752c11.614,11.605,14.379,29.414,6.886,44.305c-4.497,8.934-3.371,19.678,2.876,27.494
	c4.924,6.161,12.331,9.609,19.994,9.609c2.057,0,4.139-0.247,6.195-0.759c3.149-0.785,6.374-1.178,9.609-1.178
	c10.189,0,19.721,3.925,26.846,11.051c4.804,4.804,7.415,10.112,8.951,14.908c-7.774,11.998-12.416,26.24-12.416,41.591
	c0,41.66,33.391,75.503,74.795,76.595c-6.69,11.392-10.795,24.474-10.795,38.605c0,42.351,34.449,76.8,76.8,76.8
	s76.8-34.449,76.8-76.8c0-14.131-4.105-27.213-10.795-38.605c41.404-1.092,74.795-34.935,74.795-76.595
	c0-15.351-4.634-29.594-12.425-41.6c1.536-4.796,4.147-10.103,8.951-14.908c7.125-7.125,16.666-11.051,26.846-11.051
	c3.226,0,6.46,0.401,9.609,1.178c2.057,0.512,4.13,0.759,6.195,0.759c7.671,0,15.07-3.456,19.994-9.609
	c6.246-7.817,7.373-18.551,2.876-27.494c-7.492-14.891-4.719-32.691,6.886-44.305c7.723-7.723,16.905-10.112,23.253-10.752
	c10.906-1.109,19.891-9.028,22.357-19.703s-2.133-21.743-11.443-27.511c-2.884-1.792-5.18-3.55-7.006-5.376
	c-14.976-14.967-14.976-39.33,0-54.306c9.993-10.001,9.993-26.206,0-36.198c-5.001-5.001-11.554-7.501-18.099-7.501
	c-6.554,0-13.099,2.5-18.099,7.501c-7.253,7.253-16.896,11.247-27.153,11.247c-10.257,0-19.9-3.994-27.153-11.247
	c-1.826-1.826-3.584-4.122-5.376-7.006c-4.753-7.646-13.048-12.117-21.769-12.117c-1.911,0-3.84,0.213-5.769,0.657
	c-10.675,2.466-18.594,11.452-19.703,22.357c-0.649,6.349-3.029,15.531-10.752,23.253c-7.125,7.125-16.632,11.051-26.752,11.051
	c-6.059,0-12.134-1.442-17.553-4.164c-3.644-1.835-7.578-2.731-11.503-2.731c-5.7,0-11.358,1.903-15.991,5.606
	c-7.817,6.246-11.273,16.478-8.849,26.189c2.167,8.678,1.075,17.374-2.381,25.088c-3.456-7.714-4.54-16.41-2.381-25.088
	c2.423-9.711-1.033-19.942-8.849-26.189c-4.634-3.703-10.291-5.606-15.991-5.606c-3.917,0-7.859,0.896-11.503,2.731
	c-5.419,2.731-11.486,4.164-17.545,4.164c-10.121,0-19.627-3.925-26.752-11.051c-7.723-7.723-10.112-16.905-10.752-23.253
	c-1.109-10.906-9.037-19.891-19.712-22.357c-1.911-0.444-3.849-0.657-5.76-0.657c-8.721,0-17.015,4.471-21.751,12.109
	c-1.792,2.884-3.55,5.18-5.376,7.006c-7.253,7.253-16.896,11.247-27.153,11.247s-19.9-3.994-27.153-11.247
	c-5.001-5.001-11.546-7.501-18.099-7.501s-13.107,2.5-18.099,7.501c-10.001,10.001-10.001,26.206,0,36.198
	c14.976,14.976,14.976,39.33,0,54.306C17.282,111.455,14.995,113.213,12.102,115.005z M192.002,371.202
	c-28.279,0-51.2-22.921-51.2-51.2c0-28.279,22.921-51.2,51.2-51.2s51.2,22.921,51.2,51.2
	C243.202,348.281,220.281,371.202,192.002,371.202z M256.002,486.402c-28.279,0-51.2-22.921-51.2-51.2
	c0-28.279,22.921-51.2,51.2-51.2s51.2,22.921,51.2,51.2C307.202,463.481,284.281,486.402,256.002,486.402z M320.002,371.202
	c-28.279,0-51.2-22.921-51.2-51.2c0-28.279,22.921-51.2,51.2-51.2c28.279,0,51.2,22.921,51.2,51.2
	C371.202,348.281,348.281,371.202,320.002,371.202z M266.617,136.774c16.486-16.486,21.862-39.671,16.606-60.749
	c9.122,4.591,19.089,6.895,29.056,6.895c16.239,0,32.444-6.135,44.851-18.551c10.837-10.837,16.683-24.619,18.125-38.767
	c2.551,4.105,5.461,8.047,9.028,11.614c12.501,12.493,28.877,18.748,45.252,18.748c16.384,0,32.759-6.246,45.252-18.748
	c-24.994,24.994-24.994,65.519,0,90.513c3.567,3.567,7.509,6.485,11.614,9.028c-14.148,1.434-27.93,7.287-38.767,18.125
	c-20.028,20.028-23.723,49.92-11.657,73.907c-5.18-1.289-10.496-1.946-15.804-1.946c-16.273,0-32.521,6.11-44.954,18.543
	c-3.968,3.968-7.228,8.337-9.865,12.971c-12.74-9.404-28.331-15.155-45.355-15.155c-11.622,0-22.434,3.004-32.307,7.646
	c14.31-17.809,33.348-33.058,53.103-48.853c32.896-26.325,66.953-53.572,80.947-95.548c2.227-6.699-1.399-13.952-8.098-16.196
	c-6.699-2.176-13.952,1.399-16.196,8.098c-11.597,34.825-41.25,58.547-72.653,83.652c-30.302,24.243-61.372,49.417-77.056,86.007
	c-5.001-5.367-10.547-10.129-16.879-13.892c0.043-0.043,0.094-0.068,0.137-0.111c24.994-24.994,24.405-74.129-0.589-99.123
	c-0.077-0.077-0.171-0.119-0.247-0.196C243.492,152.834,256.369,147.022,266.617,136.774z M37.215,127.729
	c24.994-24.994,24.994-65.519,0-90.513c12.501,12.501,28.877,18.748,45.252,18.748s32.759-6.246,45.252-18.748
	c3.567-3.567,6.485-7.501,9.028-11.614c1.442,14.148,7.287,27.93,18.125,38.767c12.416,12.416,28.621,18.551,44.86,18.551
	c9.958,0,19.934-2.313,29.047-6.895c-4.233,16.973-0.981,35.021,8.866,50.091c-4.019,1.818-7.876,2.773-10.991,3.2
	c-9.626,1.331-17.664,7.996-20.753,17.212c-3.089,9.216-0.708,19.379,6.17,26.249c0.273,0.273,0.563,0.546,0.862,0.819
	c14.353,14.797,14.805,47.471-0.034,62.302c-0.469,0.469-1.05,0.768-1.545,1.203c-13.414-31.676-31.317-49.579-48.7-66.961
	c-18.645-18.654-36.25-36.275-48.102-71.799c-2.253-6.699-9.472-10.3-16.196-8.098c-6.699,2.253-10.325,9.498-8.098,16.196
	c13.747,41.276,34.372,61.875,54.298,81.801c15.531,15.531,30.276,30.498,41.643,55.535c-14.857,1.135-28.484,6.357-39.791,14.771
	c-2.62-4.676-5.632-9.182-9.626-13.167c-12.433-12.433-28.672-18.543-44.954-18.543c-5.308,0-10.615,0.649-15.804,1.946
	c12.066-23.987,8.371-53.879-11.657-73.907c-10.837-10.829-24.619-16.674-38.767-18.116
	C29.715,134.205,33.649,131.295,37.215,127.729z"/>
<g>
</g>
<g>
</g>
<g>
</g>
<g>
</g>
<g>
</g>
<g>
</g>
<g>
</g>
<g>
</g>
<g>
</g>
<g>
</g>
<g>
</g>
<g>
</g>
<g>
</g>
<g>
</g>
<g>
</g>
</svg>
